<?xml version="1.0" standalone="no"?>
<!DOCTYPE svg PUBLIC "-//W3C//DTD SVG 20010904//EN"
 "http://www.w3.org/TR/2001/REC-SVG-20010904/DTD/svg10.dtd">
<svg version="1.0" xmlns="http://www.w3.org/2000/svg"
 width="204.000000pt" height="192.000000pt" viewBox="0 0 204.000000 192.000000"
 preserveAspectRatio="xMidYMid meet">

<g transform="translate(0.000000,192.000000) scale(0.100000,-0.100000)"
fill="#000000" stroke="none">
<path d="M569 1907 c-154 -44 -245 -168 -237 -322 3 -65 13 -93 66 -197 2 -5
-80 -8 -182 -8 -180 0 -185 -1 -200 -22 -13 -19 -16 -60 -16 -243 0 -254 3
-265 71 -265 l39 0 0 -425 0 -425 53 0 52 0 -3 425 -3 425 381 0 380 0 0 -425
0 -425 55 0 55 0 0 425 0 425 380 0 381 0 -3 -425 -3 -425 53 0 52 0 0 425 0
425 38 0 c21 0 43 5 50 12 17 17 17 489 0 506 -8 8 -67 12 -200 12 l-188 0 29
45 c40 63 55 124 49 200 -16 190 -191 321 -383 286 -115 -21 -226 -92 -291
-184 l-19 -28 -38 51 c-90 121 -285 194 -418 157z m208 -122 c66 -30 132 -91
163 -152 21 -40 26 -66 28 -151 l4 -104 -194 4 c-190 3 -194 3 -240 31 -114
67 -141 226 -56 323 73 83 179 100 295 49z m725 4 c69 -35 118 -119 118 -200
-1 -45 -30 -107 -68 -146 -53 -52 -103 -63 -299 -63 l-173 0 0 88 c0 112 18
167 77 232 95 106 238 142 345 89z m438 -674 l0 -165 -915 0 -915 0 0 165 0
165 915 0 915 0 0 -165z"/>
</g>
</svg>
