<?xml version="1.0" standalone="no"?>
<!DOCTYPE svg PUBLIC "-//W3C//DTD SVG 20010904//EN"
 "http://www.w3.org/TR/2001/REC-SVG-20010904/DTD/svg10.dtd">
<svg version="1.0" xmlns="http://www.w3.org/2000/svg"
 width="200.000000pt" height="189.000000pt" viewBox="0 0 200.000000 189.000000"
 preserveAspectRatio="xMidYMid meet">

<g transform="translate(0.000000,189.000000) scale(0.100000,-0.100000)"
fill="#000000" stroke="none">
<path d="M820 1700 c-347 -89 -590 -401 -590 -757 0 -137 21 -226 81 -350 130
-265 398 -433 691 -433 138 0 234 22 357 81 91 44 116 63 196 142 64 64 105
115 133 167 23 41 42 80 42 85 0 6 -13 15 -29 21 -27 11 -29 9 -44 -25 -120
-268 -439 -443 -733 -402 -243 34 -443 174 -547 382 -62 124 -81 199 -81 329
0 123 17 198 73 315 88 186 261 326 471 382 88 23 263 23 345 -1 128 -36 225
-89 312 -169 48 -44 137 -157 129 -164 -2 -3 -18 3 -35 11 -39 21 -37 21 -50
-14 l-10 -31 87 -40 c61 -28 91 -38 102 -31 8 5 22 42 32 83 24 109 23 116
-12 121 -30 5 -40 -6 -40 -43 0 -32 -15 -22 -54 36 -79 113 -214 221 -346 273
-140 56 -336 69 -480 32z"/>
<path d="M755 1364 c-126 -64 -233 -122 -238 -129 -4 -8 -6 -146 -5 -307 l3
-293 235 -117 c129 -64 246 -116 260 -116 14 0 131 52 260 116 l235 117 3 293
c1 161 -1 300 -6 308 -11 19 -468 244 -495 243 -12 0 -125 -52 -252 -115z
m300 29 c19 -9 35 -19 35 -23 0 -3 -85 -46 -189 -96 l-189 -92 -43 19 c-23 11
-39 22 -35 26 10 11 360 181 373 182 7 1 28 -7 48 -16z m145 -74 c9 -6 11 -13
5 -15 -5 -3 -98 -49 -205 -102 l-195 -97 -5 -57 c-4 -46 -8 -56 -19 -49 -8 5
-20 7 -28 4 -18 -7 -19 112 0 124 27 17 413 202 422 202 6 1 17 -4 25 -10z
m149 -70 c26 -11 41 -23 35 -28 -5 -5 -90 -48 -190 -96 l-181 -87 -54 23 -53
23 189 93 c105 50 195 92 200 92 6 0 30 -8 54 -20z m-681 -121 c8 -7 12 -46
12 -129 0 -66 2 -119 4 -119 2 0 11 -3 19 -6 8 -3 24 4 35 16 l21 22 25 -51
c27 -52 52 -65 74 -38 6 7 13 56 14 109 l3 96 53 -24 52 -23 0 -245 c0 -149
-4 -246 -9 -246 -6 0 -96 41 -200 92 l-191 91 0 248 0 248 38 -16 c20 -8 43
-20 50 -25z m772 -206 l0 -249 -190 -91 c-105 -51 -195 -92 -201 -92 -6 0 -8
91 -7 246 l3 245 195 94 c107 52 196 95 198 95 1 0 2 -112 2 -248z"/>
</g>
</svg>
