<?xml version="1.0" standalone="no"?>
<!DOCTYPE svg PUBLIC "-//W3C//DTD SVG 20010904//EN"
 "http://www.w3.org/TR/2001/REC-SVG-20010904/DTD/svg10.dtd">
<svg version="1.0" xmlns="http://www.w3.org/2000/svg"
 width="204.000000pt" height="192.000000pt" viewBox="0 0 204.000000 192.000000"
 preserveAspectRatio="xMidYMid meet">

<g transform="translate(0.000000,192.000000) scale(0.100000,-0.100000)"
fill="#000000" stroke="none">
<path d="M1003 1368 c-6 -7 -18 -28 -27 -45 -11 -22 -24 -33 -39 -33 -71 -1
-85 -29 -39 -74 26 -24 28 -32 24 -76 -5 -57 3 -62 63 -33 33 16 37 16 70 0
60 -29 68 -24 63 33 -4 44 -2 52 24 76 46 45 32 73 -39 74 -15 0 -29 13 -45
42 -25 46 -40 55 -55 36z m42 -56 c15 -28 27 -38 50 -40 59 -6 62 -12 26 -42
-32 -27 -33 -31 -27 -74 4 -25 4 -46 -1 -46 -4 0 -23 9 -40 20 -33 20 -33 20
-65 0 -18 -11 -37 -20 -41 -20 -5 0 -5 21 -1 46 6 43 5 47 -27 74 -36 30 -33
36 26 42 23 2 35 12 50 40 11 21 22 38 25 38 3 0 14 -17 25 -38z"/>
<path d="M656 1235 c-9 -22 -24 -37 -40 -41 -37 -9 -39 -31 -6 -56 21 -15 30
-30 30 -50 0 -37 22 -45 57 -20 20 14 34 17 51 11 23 -9 52 -3 52 12 0 4 -5
19 -11 33 -10 20 -9 30 5 51 24 36 17 47 -29 52 -25 2 -45 11 -54 23 -20 29
-39 24 -55 -15z m95 -30 c33 8 35 3 13 -30 -12 -18 -13 -28 -5 -44 18 -33 14
-42 -15 -31 -19 8 -31 6 -47 -5 -30 -21 -37 -19 -37 9 0 15 -10 32 -26 43
l-26 20 30 12 c21 9 32 22 36 44 l7 32 21 -28 c17 -23 25 -27 49 -22z"/>
<path d="M1331 1251 c-7 -11 -26 -20 -51 -24 -23 -3 -44 -8 -47 -11 -4 -3 2
-21 12 -39 14 -27 15 -38 6 -55 -6 -11 -11 -25 -11 -30 0 -15 28 -22 52 -13
17 6 31 3 51 -11 35 -25 57 -17 57 20 0 20 9 35 30 50 33 25 31 47 -6 56 -16
4 -31 19 -40 41 -16 39 -38 45 -53 16z m39 -42 c0 -9 14 -22 31 -30 l31 -12
-26 -20 c-16 -11 -26 -28 -26 -43 0 -28 -7 -30 -37 -9 -16 11 -28 13 -47 5
-29 -11 -33 -2 -15 31 8 16 7 26 -5 44 -22 34 -20 38 13 30 25 -5 33 -2 47 20
13 20 19 23 25 13 5 -7 9 -20 9 -29z"/>
<path d="M457 1123 c-4 -3 -7 -16 -7 -29 0 -12 -11 -29 -25 -38 -31 -21 -32
-33 0 -48 13 -6 28 -24 34 -39 12 -34 31 -37 56 -9 11 12 28 19 44 18 22 -3
26 0 23 22 -2 14 -4 43 -5 65 -2 38 -3 40 -33 37 -19 -2 -36 3 -44 13 -13 16
-32 20 -43 8z m75 -40 c22 6 23 3 24 -42 0 -42 -2 -48 -18 -43 -11 2 -25 -5
-36 -19 l-19 -22 -7 26 c-3 15 -16 31 -27 38 l-21 11 21 14 c12 9 21 26 21 41
0 25 1 26 20 8 12 -11 28 -15 42 -12z"/>
<path d="M1540 1115 c-8 -10 -25 -15 -44 -13 -30 3 -31 1 -33 -37 -1 -22 -3
-51 -5 -65 -3 -22 1 -25 23 -22 16 1 33 -6 44 -18 25 -28 44 -25 56 9 6 15 21
33 34 39 31 15 31 27 1 48 -14 8 -26 27 -28 42 -3 31 -29 40 -48 17z m52 -69
l20 -14 -21 -11 c-11 -7 -24 -23 -27 -38 l-7 -26 -19 22 c-11 15 -25 21 -37
18 -17 -4 -19 1 -17 43 1 46 2 48 27 43 17 -3 30 1 40 13 13 16 14 15 17 -9 2
-15 12 -33 24 -41z"/>
<path d="M655 990 c-10 -16 -45 -143 -45 -162 0 -43 20 -12 36 57 24 102 21
99 87 85 81 -19 82 -19 67 -81 -17 -76 -51 -189 -56 -189 -3 0 -34 7 -69 16
-51 13 -65 20 -65 35 0 11 -4 19 -10 19 -5 0 -10 -11 -10 -25 0 -29 16 -37
109 -56 54 -12 62 -11 73 4 11 14 20 15 53 7 65 -16 337 -29 360 -17 11 6 75
48 143 94 109 76 122 87 122 114 0 22 -7 32 -25 41 -14 6 -25 17 -25 23 0 16
-33 45 -50 45 -8 0 -26 -12 -42 -27 -24 -23 -28 -24 -34 -10 -9 26 -57 21 -84
-8 -33 -35 -16 -45 19 -11 25 24 29 25 41 11 11 -13 8 -21 -19 -49 -23 -23
-29 -36 -21 -41 7 -5 37 17 76 56 60 59 65 62 81 47 22 -23 10 -36 -88 -93
-43 -26 -79 -51 -79 -56 0 -10 65 21 150 71 55 33 80 33 80 2 0 -12 -44 -48
-134 -109 l-134 -91 -139 9 c-76 5 -161 13 -189 19 l-52 11 20 76 c19 77 37
101 88 123 34 14 253 -56 258 -83 6 -30 -26 -31 -117 -3 -94 28 -111 31 -111
18 0 -11 193 -65 216 -60 10 2 23 16 28 31 15 41 -5 54 -138 93 -111 32 -119
33 -153 19 -44 -18 -40 -19 -45 3 -4 14 -24 24 -71 35 -77 20 -94 21 -102 7z"/>
<path d="M507 3 c282 -2 744 -2 1025 0 282 1 52 2 -512 2 -564 0 -794 -1 -513
-2z"/>
</g>
</svg>
