<?xml version="1.0" standalone="no"?>
<!DOCTYPE svg PUBLIC "-//W3C//DTD SVG 20010904//EN"
 "http://www.w3.org/TR/2001/REC-SVG-20010904/DTD/svg10.dtd">
<svg version="1.0" xmlns="http://www.w3.org/2000/svg"
 width="204.000000pt" height="192.000000pt" viewBox="0 0 204.000000 192.000000"
 preserveAspectRatio="xMidYMid meet">

<g transform="translate(0.000000,192.000000) scale(0.100000,-0.100000)"
fill="#000000" stroke="none">
<path d="M0 1875 l0 -35 1020 0 1020 0 0 35 0 35 -1020 0 -1020 0 0 -35z"/>
<path d="M0 1455 l0 -185 1020 0 1020 0 0 185 0 185 -1020 0 -1020 0 0 -185z"/>
<path d="M560 1178 c-115 -77 -259 -125 -405 -133 l-80 -4 -3 -58 c-5 -85 16
-292 39 -380 10 -42 19 -80 19 -85 0 -4 -29 -8 -65 -8 l-65 0 0 -35 0 -35 83
0 82 0 35 -71 c69 -140 200 -264 355 -335 66 -30 71 -29 199 45 107 62 209
166 271 276 l47 85 484 0 484 0 0 35 0 35 -470 0 c-259 0 -470 2 -470 3 0 2 9
37 19 78 24 93 43 281 39 374 l-3 70 -65 2 c-36 2 -87 8 -115 14 -68 15 -201
71 -287 119 -38 22 -73 40 -76 39 -4 0 -27 -14 -52 -31z m164 -133 c124 -61
207 -85 290 -85 l56 0 0 -87 c0 -104 -21 -254 -48 -340 -48 -153 -171 -303
-312 -381 -41 -23 -83 -42 -94 -42 -28 0 -145 65 -204 113 -106 87 -187 228
-222 384 -11 49 -23 149 -27 227 -6 137 -6 138 15 132 28 -9 165 9 230 30 29
10 86 36 125 60 40 23 74 42 76 43 2 1 54 -24 115 -54z"/>
<path d="M1425 1046 c-16 -8 -42 -26 -57 -42 -108 -116 -26 -304 132 -304 47
0 100 20 128 48 18 18 22 19 33 6 43 -52 151 -69 218 -34 166 84 106 340 -79
340 -51 0 -123 -29 -138 -55 -9 -16 -11 -16 -32 5 -47 47 -142 64 -205 36z"/>
</g>
</svg>
